#!OML:ASF E:\emotionWalksFemale\Project 1\Capture day 1\Session 1\Female1.ASF
:FULLY-SPECIFIED
:DEGREES
856
root 8.5182 15.3342 -38.3828 -172.717 -196.411 -177.941
lowerback 7.25121 1.44714 0.654226
upperback -3.45798 1.95537 -0.778414
thorax -7.65748 0.903742 -1.45488
lowerneck -2.88845 -8.49094 -10.3656
upperneck 14.1072 -11.8392 8.22924
head 5.84231 -5.82557 3.47547
rclavicle 2.09966e-014 0
rhumerus -42.6103 18.9108 -98.5736
rradius 28.2347
rwrist 26.5289
rhand 2.34953 -53.813
rfingers 7.12502
rthumb 27.8388 638.229
lclavicle 2.09966e-014 0
lhumerus -33.0336 -0.921222 79.4078
lradius 51.9681
lwrist 4.35486
lhand -14.5535 -32.1968
lfingers 7.12502
lthumb 11.5953 -2.53761
rfemur -8.63837 14.8427 28.6843
rtibia 26.7064
rfoot -24.6218 -32.1206
rtoes 10.6009
lfemur -17.1382 -22.0653 -21.2741
ltibia 33.5566
lfoot -25.473 11.1935
ltoes -40.1264
857
root 8.52217 15.3294 -38.3856 -172.689 -196.381 -178.056
lowerback 6.90401 1.38019 0.716794
upperback -3.41338 1.87388 -0.730726
thorax -7.41009 0.865068 -1.41682
lowerneck -3.00729 -8.41947 -10.4344
upperneck 14.2222 -11.7413 8.28424
head 5.89634 -5.7746 3.50595
rclavicle -6.69159e-014 -1.45113e-014
rhumerus -42.9501 18.7933 -98.087
rradius 28.5223
rwrist 27.7106
rhand 2.00765 -54.0555
rfingers 7.12502
rthumb 27.5119 637.934
lclavicle -6.69159e-014 -1.45113e-014
lhumerus -32.4434 -1.43859 79.5017
lradius 52.7332
lwrist 4.54209
lhand -15.1549 -31.1463
lfingers 7.12502
lthumb 11.0153 -1.45532
rfemur -8.63113 15.0351 28.7793
rtibia 26.5678
rfoot -24.6928 -32.3025
rtoes 11.188
lfemur -17.1267 -21.7542 -21.2567
ltibia 33.6949
lfoot -25.8915 11.8675
ltoes -40.2159
858
root 8.52454 15.3187 -38.386 -172.902 -196.537 -178.192
lowerback 7.13405 1.28483 0.813891
upperback -3.53076 1.7591 -0.710321
thorax -7.67028 0.801192 -1.44422
lowerneck -3.06314 -8.35348 -10.3389
upperneck 14.5031 -11.6542 8.16728
head 5.97263 -5.73148 3.4574
rclavicle 3.34952e-014 5.56597e-015
rhumerus -43.3841 18.3289 -97.6433
rradius 28.8379
rwrist 28.0928
rhand 1.99464 -54.1022
rfingers 7.12502
rthumb 27.4995 637.886
lclavicle 3.34952e-014 5.56597e-015
lhumerus -32.2831 -2.35011 79.5825
lradius 53.6078
lwrist 4.60127
lhand -15.3765 -31.3512
lfingers 7.12502
lthumb 10.8016 -1.64894
rfemur -8.30498 15.2805 29.0382
rtibia 26.3925
rfoot -24.8614 -32.7512
rtoes 11.6572
lfemur -16.8813 -21.5726 -21.2525
ltibia 33.8301
lfoot -26.3498 12.401
ltoes -39.582
859
root 8.52745 15.3116 -38.3898 -172.985 -196.349 -178.425
lowerback 6.92244 1.28168 0.922621
upperback -3.46018 1.76927 -0.638254
thorax -7.47058 0.805282 -1.42308
lowerneck -3.34512 -8.29177 -10.234
upperneck 14.6289 -11.5382 8.01384
head 6.03404 -5.67123 3.38993
rclavicle 7.09661e-014 1.03368e-014
rhumerus -43.3052 18.3702 -97.2097
rradius 28.8071
rwrist 28.3934
rhand 1.82435 -54.404
rfingers 7.12502
rthumb 27.3366 637.558
lclavicle 7.09661e-014 1.03368e-014
lhumerus -31.8423 -3.15023 79.6787
lradius 54.5596
lwrist 4.64002
lhand -13.8659 -33.1648
lfingers 7.12502
lthumb 12.2584 -3.54411
rfemur -8.20043 15.4197 29.2847
rtibia 26.206
rfoot -24.8295 -32.8874
rtoes 10.9272
lfemur -16.8298 -21.4256 -21.0914
ltibia 33.9384
lfoot -26.69 13.297
ltoes -37.5965
860
root 8.51526 15.3082 -38.3779 -172.963 -196.045 -178.614
lowerback 6.63194 1.31034 0.585809
upperback -3.52746 1.78341 -0.486079
thorax -7.38842 0.834019 -1.06915
lowerneck -3.37015 -8.19203 -10.2184
upperneck 14.7184 -11.3921 7.91878
head 6.046 -5.60473 3.36919
rclavicle -1.72384e-014 -3.97569e-016
rhumerus -43.517 18.5231 -96.9424
rradius 28.7805
rwrist 28.407
rhand 1.83695 -55.0878
rfingers 7.12502
rthumb 27.3486 636.876
lclavicle -1.72384e-014 -3.97569e-016
lhumerus -31.7438 -3.82686 79.7255
lradius 55.5206
lwrist 4.49331
lhand -13.777 -33.0202
lfingers 7.12502
lthumb 12.3441 -3.40458
rfemur -8.05097 16.2606 29.6106
rtibia 26.0317
rfoot -25.388 -33.3927
rtoes 11.5808
lfemur -16.7353 -21.2033 -20.8936
ltibia 33.9952
lfoot -27.2411 14.2662
ltoes -35.9425
861
root 8.51571 15.3049 -38.3728 -173 -195.868 -178.713
lowerback 6.34394 1.32358 0.488097
upperback -3.52511 1.79306 -0.450446
thorax -7.22287 0.846183 -0.969899
lowerneck -3.19652 -8.11937 -10.1345
upperneck 14.583 -11.3025 7.88889
head 5.95818 -5.56425 3.36369
rclavicle -8.12532e-015 -1.98785e-016
rhumerus -43.6559 18.4527 -96.6177
rradius 28.8458
rwrist 28.279
rhand 2.21528 -56.0278
rfingers 7.12502
rthumb 27.7105 635.994
lclavicle -8.12532e-015 -1.98785e-016
lhumerus -31.5205 -4.52817 79.7603
lradius 56.3067
lwrist 3.99742
lhand -13.7691 -33.2972
lfingers 7.12502
lthumb 12.3517 -3.68209
rfemur -7.88473 16.7713 29.7687
rtibia 25.8986
rfoot -25.8644 -33.5983
rtoes 12.8473
lfemur -16.551 -21.0982 -20.8738
ltibia 33.9759
lfoot -27.7382 15.1998
ltoes -35.1315
862
root 8.52374 15.3009 -38.3702 -173.031 -195.64 -178.801
lowerback 6.33158 1.34829 0.503671
upperback -3.67037 1.82747 -0.465065
thorax -7.36931 0.860605 -1.00075
lowerneck -3.02614 -8.04835 -10.0054
upperneck 14.6202 -11.2226 7.81697
head 5.92119 -5.52756 3.33528
rclavicle 1.31074e-015 6.16232e-015
rhumerus -43.9446 18.3327 -96.367
rradius 28.8916
rwrist 27.9064
rhand 1.9245 -56.1653
rfingers 7.12502
rthumb 27.4324 635.812
lclavicle 1.31074e-015 6.16232e-015
lhumerus -31.5133 -5.23322 79.8013
lradius 57.0897
lwrist 3.35979
lhand -13.7395 -33.4557
lfingers 7.12502
lthumb 12.3803 -3.84229
rfemur -7.79022 16.8845 29.8482
rtibia 25.8123
rfoot -25.8667 -33.6675
rtoes 12.5263
lfemur -16.3861 -21.133 -20.8971
ltibia 33.9018
lfoot -27.944 16.1948
ltoes -34.2942
863
root 8.5331 15.2972 -38.3685 -173.005 -195.395 -178.788
lowerback 6.10915 1.3358 0.381615
upperback -3.68957 1.79886 -0.46336
thorax -7.26512 0.85368 -0.920924
lowerneck -2.92886 -7.97884 -9.95384
upperneck 14.5915 -11.1384 7.81376
head 5.88417 -5.48718 3.33822
rclavicle 5.71537e-014 6.65929e-015
rhumerus -43.9995 18.4297 -96.09
rradius 28.8749
rwrist 27.4628
rhand 0.937942 -55.431
rfingers 7.12502
rthumb 26.4884 636.4
lclavicle 5.71537e-014 6.65929e-015
lhumerus -31.4344 -5.72926 79.7963
lradius 57.8916
lwrist 2.83316
lhand -12.9642 -33.4051
lfingers 7.12502
lthumb 13.1277 -3.83833
rfemur -7.76904 17.2614 29.8311
rtibia 25.8033
rfoot -25.832 -34.0743
rtoes 11.8461
lfemur -16.2688 -21.2706 -21.0081
ltibia 33.8019
lfoot -27.675 17.3381
ltoes -34.7827
864
root 8.54433 15.2935 -38.3692 -172.983 -195.227 -178.694
lowerback 6.05572 1.30456 0.285555
upperback -3.78783 1.74555 -0.506112
thorax -7.34149 0.83055 -0.905765
lowerneck -2.82609 -7.91621 -9.93171
upperneck 14.6823 -11.0693 7.81305
head 5.88702 -5.45494 3.3443
rclavicle 6.8354e-014 8.94531e-016
rhumerus -44.2562 18.4274 -95.8297
rradius 28.9148
rwrist 27.7025
rhand 0.35404 -55.1804
rfingers 7.12502
rthumb 25.9294 636.568
lclavicle 6.8354e-014 8.94531e-016
lhumerus -31.7114 -6.27682 79.7814
lradius 58.9226
lwrist 2.56277
lhand -11.0838 -33.0108
lfingers 7.12502
lthumb 14.9398 -3.56966
rfemur -7.74389 17.8479 29.732
rtibia 25.8308
rfoot -25.9559 -34.5573
rtoes 11.7907
lfemur -16.15 -21.347 -21.2131
ltibia 33.7053
lfoot -27.4035 18.0908
ltoes -35.521
865
root 8.55761 15.2906 -38.3703 -172.997 -195.057 -178.665
lowerback 5.99492 1.27602 0.258256
upperback -3.8695 1.70394 -0.52231
thorax -7.39448 0.810697 -0.902235
lowerneck -2.76997 -7.83556 -9.84914
upperneck 14.8186 -10.966 7.72913
head 5.90096 -5.40644 3.31532
rclavicle 1.83938e-014 -5.1684e-015
rhumerus -44.1563 17.8257 -95.0263
rradius 29.0417
rwrist 27.0817
rhand 1.10466 -54.7419
rfingers 7.12502
rthumb 26.648 637.114
lclavicle 1.83938e-014 -5.1684e-015
lhumerus -32.1341 -6.91006 79.837
lradius 60.1579
lwrist 2.54448
lhand -9.11405 -31.8913
lfingers 7.12502
lthumb 16.8366 -2.60119
rfemur -7.72012 18.147 29.6648
rtibia 25.8658
rfoot -26.3161 -34.6809
rtoes 11.9879
lfemur -16.0372 -21.3532 -21.3497
ltibia 33.6329
lfoot -27.3842 18.1493
ltoes -34.0841
866
root 8.57015 15.2863 -38.3711 -173.035 -194.871 -178.68
lowerback 5.99464 1.26389 0.300161
upperback -3.9484 1.68872 -0.567882
thorax -7.47641 0.799171 -0.973151
lowerneck -2.69971 -7.78319 -9.6901
upperneck 14.8967 -10.9022 7.62678
head 5.8927 -5.37487 3.26615
rclavicle 5.28426e-014 -3.8763e-015
rhumerus -44.154 17.4209 -94.5519
rradius 29.1402
rwrist 26.6894
rhand 0.731618 -54.3063
rfingers 7.12502
rthumb 26.2909 637.496
lclavicle 5.28426e-014 -3.8763e-015
lhumerus -32.3339 -7.53877 79.8639
lradius 61.0446
lwrist 2.4509
lhand -7.24046 -30.739
lfingers 7.12502
lthumb 18.6395 -1.61198
rfemur -7.68942 18.2127 29.6455
rtibia 25.915
rfoot -26.4079 -34.7328
rtoes 11.5267
lfemur -15.9502 -21.2178 -21.4429
ltibia 33.5866
lfoot -27.1599 18.097
ltoes -32.962
867
root 8.58129 15.2822 -38.3702 -173.073 -194.734 -178.661
lowerback 5.98975 1.23084 0.361465
upperback -3.99038 1.64449 -0.651073
thorax -7.51514 0.771571 -1.09002
lowerneck -2.81207 -7.72187 -9.49234
upperneck 14.9959 -10.8159 7.52584
head 5.91829 -5.32563 3.2055
rclavicle 1.18277e-014 -7.45443e-015
rhumerus -44.0797 17.0573 -94.1524
rradius 29.1758
rwrist 26.4334
rhand 0.104083 -53.9244
rfingers 7.12502
rthumb 25.6901 637.789
lclavicle 1.18277e-014 -7.45443e-015
lhumerus -32.3577 -7.94314 79.8007
lradius 61.6217
lwrist 2.04816
lhand -5.17992 -30.3232
lfingers 7.12502
lthumb 20.6205 -1.3985
rfemur -7.63302 18.3107 29.6243
rtibia 25.9711
rfoot -26.2442 -34.9729
rtoes 10.557
lfemur -15.8534 -21.1223 -21.5537
ltibia 33.5567
lfoot -27.1397 18.092
ltoes -32.7044
868
root 8.59188 15.2798 -38.3678 -173.085 -194.608 -178.654
lowerback 5.78239 1.20038 0.191569
upperback -3.93177 1.59497 -0.545723
thorax -7.34044 0.76039 -0.871653
lowerneck -2.91652 -7.66161 -9.51399
upperneck 14.9884 -10.7026 7.39323
head 5.91807 -5.27768 3.17257
rclavicle -4.96216e-014 7.25564e-015
rhumerus -43.8833 16.8652 -93.4636
rradius 29.2465
rwrist 25.9714
rhand -0.312347 -53.8733
rfingers 7.12502
rthumb 25.2912 637.783
lclavicle -4.96216e-014 7.25564e-015
lhumerus -32.3631 -8.03063 79.993
lradius 62.0873
lwrist 1.57648
lhand -3.55155 -30.0692
lfingers 7.12502
lthumb 22.1845 -1.32223
rfemur -7.59465 18.5828 29.6108
rtibia 26.0142
rfoot -26.531 -35.2123
rtoes 10.3787
lfemur -15.7709 -21.2579 -21.5977
ltibia 33.5437
lfoot -27.6097 17.815
ltoes -30.9959
